<svg width="20" height="20" viewBox="0 0 20 20" fill="none" xmlns="http://www.w3.org/2000/svg">
<path fill-rule="evenodd" clip-rule="evenodd" d="M10 6.25036C11.0355 6.25036 11.875 7.08982 11.875 8.12536C11.875 9.16089 11.0355 10.0004 10 10.0004C8.96447 10.0004 8.125 9.16089 8.125 8.12536C8.125 7.08982 8.96447 6.25036 10 6.25036ZM10 5.00036C8.27411 5.00036 6.875 6.39947 6.875 8.12536C6.875 9.85125 8.27411 11.2504 10 11.2504C11.7259 11.2504 13.125 9.85125 13.125 8.12536C13.125 6.39949 11.7259 5.00042 10 5.00042V5.00036ZM10 2.50048C13.0556 2.45523 15.5716 4.89125 15.625 7.94673C15.6253 9.12605 15.2325 10.2718 14.5088 11.203L14.4879 11.2302L14.4684 11.2586L10 17.7869L5.53125 11.2585L5.51181 11.2301L5.49088 11.2029C4.76732 10.2717 4.37469 9.12602 4.375 7.9468C4.42841 4.89131 6.94438 2.45529 10 2.50055V2.50048ZM10 1.25055C6.25321 1.20322 3.17637 4.20007 3.125 7.9468C3.12649 9.40124 3.61004 10.8142 4.5 11.9646L10 20L15.5 11.9646C16.39 10.8142 16.8735 9.40124 16.875 7.9468C16.8236 4.20007 13.7468 1.20322 10 1.25055Z" fill="#333333"/>
<mask id="mask0" mask-type="alpha" maskUnits="userSpaceOnUse" x="3" y="1" width="14" height="19">
<path fill-rule="evenodd" clip-rule="evenodd" d="M10 6.25036C11.0355 6.25036 11.875 7.08982 11.875 8.12536C11.875 9.16089 11.0355 10.0004 10 10.0004C8.96447 10.0004 8.125 9.16089 8.125 8.12536C8.125 7.08982 8.96447 6.25036 10 6.25036ZM10 5.00036C8.27411 5.00036 6.875 6.39947 6.875 8.12536C6.875 9.85125 8.27411 11.2504 10 11.2504C11.7259 11.2504 13.125 9.85125 13.125 8.12536C13.125 6.39949 11.7259 5.00042 10 5.00042V5.00036ZM10 2.50048C13.0556 2.45523 15.5716 4.89125 15.625 7.94673C15.6253 9.12605 15.2325 10.2718 14.5088 11.203L14.4879 11.2302L14.4684 11.2586L10 17.7869L5.53125 11.2585L5.51181 11.2301L5.49088 11.2029C4.76732 10.2717 4.37469 9.12602 4.375 7.9468C4.42841 4.89131 6.94438 2.45529 10 2.50055V2.50048ZM10 1.25055C6.25321 1.20322 3.17637 4.20007 3.125 7.9468C3.12649 9.40124 3.61004 10.8142 4.5 11.9646L10 20L15.5 11.9646C16.39 10.8142 16.8735 9.40124 16.875 7.9468C16.8236 4.20007 13.7468 1.20322 10 1.25055Z" fill="white"/>
</mask>
<g mask="url(#mask0)">
</g>
</svg>
