<svg width="23" height="14" viewBox="0 0 23 14" fill="none" xmlns="http://www.w3.org/2000/svg">
<g clip-path="url(#clip0)">
<path d="M21.0335 0H1.9665C0.8855 0 0 0.816667 0 1.81364V12.1917C0 13.1833 0.8855 14 1.9665 14H21.0392C22.1202 14 23.0057 13.1833 23.0057 12.1864V1.81364C23 0.816667 22.1145 0 21.0335 0ZM1.0925 1.81364C1.0925 1.36818 1.4835 1.00758 1.9665 1.00758H21.0392C21.5222 1.00758 21.9132 1.36818 21.9132 1.81364V2.67273L11.6955 9.77879C11.5805 9.85833 11.4252 9.85833 11.3102 9.77879L1.0925 2.625V1.81364ZM1.0925 3.89242L6.3595 7.57803L1.0925 11.2689V3.89242ZM21.0335 12.9924H1.9665C1.5985 12.9924 1.288 12.7856 1.15575 12.4886L7.26225 8.20909L10.649 10.5742C10.902 10.7492 11.201 10.8394 11.5 10.8394C11.799 10.8394 12.098 10.7545 12.351 10.5795L15.6975 8.25152L21.804 12.5682C21.6602 12.8174 21.367 12.9924 21.0335 12.9924ZM21.9075 11.3697L16.606 7.62045L21.9075 3.92955V11.3697Z" fill="#808080"/>
</g>
<defs>
<clipPath id="clip0">
<rect width="23" height="14" fill="white"/>
</clipPath>
</defs>
</svg>
