<svg width="17" height="19" viewBox="0 0 17 19" fill="none" xmlns="http://www.w3.org/2000/svg">
<g clip-path="url(#clip0)">
<path fill-rule="evenodd" clip-rule="evenodd" d="M2.65956 15.8331L5.88861 11.8282C6.07856 11.642 6.36347 11.5488 6.55342 11.7351L7.69308 12.6665C8.35789 11.642 9.02269 10.6175 9.6875 9.59295C10.3523 8.56844 10.9221 7.45079 11.397 6.42628L10.0674 5.86746C9.78247 5.77432 9.6875 5.49491 9.78247 5.2155L11.6819 0.4655C11.7769 0.186088 12.0618 0.092951 12.3467 0.186088L15.2909 1.30374C15.9557 1.58315 16.5255 2.04883 16.8104 2.70079C17.0953 3.35276 17.0953 4.00472 16.9054 4.65668C15.9557 7.07825 14.816 9.40668 13.4864 11.642C12.1568 13.8773 10.6372 16.0194 9.02269 17.9753C8.54783 18.5341 7.88303 18.8135 7.21822 18.9067C6.55342 18.9998 5.79364 18.8135 5.22381 18.3479L2.75454 16.392C2.56459 16.392 2.46962 16.0194 2.65956 15.8331ZM7.69308 2.88707C6.83834 3.16648 6.07856 3.63217 5.41375 4.19099C4.74895 4.74981 4.17912 5.40177 3.79923 6.14687C3.32437 6.98511 3.03945 7.82334 2.94448 8.66158C2.84951 9.59295 2.84951 10.4312 3.03945 11.2694C3.13442 11.5488 3.32437 11.642 3.60928 11.642C3.8942 11.5488 3.98917 11.3626 3.98917 11.0831C3.8942 10.338 3.79923 9.59295 3.8942 8.84785C3.98917 8.10276 4.27409 7.35766 4.65398 6.7057C5.03387 6.05374 5.50873 5.40177 6.07856 4.93609C6.64839 4.37726 7.3132 4.00472 7.978 3.7253C8.26292 3.63217 8.35789 3.35275 8.26292 3.07334C8.16794 2.88707 7.88303 2.79393 7.69308 2.88707ZM7.12325 -0.000186305C5.88861 0.372363 4.74895 1.02432 3.70426 1.86256C2.75454 2.70079 1.89979 3.63217 1.23498 4.84295C0.570179 6.05374 0.19029 7.26452 0.0953182 8.56844C-0.0946259 9.87236 0.0953182 11.1763 0.380234 12.3871C0.475207 12.6665 0.760123 12.7596 0.950067 12.7596C1.23498 12.6665 1.32996 12.3871 1.32996 12.2008C1.04504 11.0831 0.855095 9.87236 1.04504 8.66158C1.14001 7.54393 1.5199 6.42628 2.08973 5.30864C2.65956 4.28413 3.41934 3.35275 4.36906 2.60766C5.22381 1.86256 6.36347 1.30374 7.40817 0.931186C7.69308 0.838049 7.78806 0.558637 7.69308 0.372363C7.69308 0.0929509 7.40817 -0.0933236 7.12325 -0.000186305ZM6.36347 12.8528L3.70426 16.1126L5.79364 17.6959C6.17353 17.9753 6.64839 18.0684 7.02828 18.0684C7.50314 18.0684 7.88303 17.789 8.16794 17.5096C9.78247 15.5537 11.302 13.5047 12.5367 11.2694C13.8663 9.12727 14.911 6.79883 15.8607 4.4704C16.0506 4.00472 15.9557 3.63217 15.8607 3.16648C15.6707 2.79393 15.3858 2.42138 14.911 2.32825L12.4417 1.39687L10.9221 5.2155L12.3467 5.77432C12.6316 5.86746 12.7266 6.14687 12.6316 6.42628C12.0618 7.63707 11.397 8.94099 10.6372 10.1518C9.87744 11.3626 9.11767 12.5733 8.35789 13.691C8.16794 13.8773 7.88303 13.9704 7.69308 13.7841L6.36347 12.8528Z" fill="#808080"/>
</g>
<defs>
<clipPath id="clip0">
<rect width="17" height="19" fill="white"/>
</clipPath>
</defs>
</svg>
